<svg xmlns="http://www.w3.org/2000/svg" xmlns:xlink="http://www.w3.org/1999/xlink"
    viewBox="0,0,256,256" width="240px" height="240px" fill-rule="nonzero">
    <g transform="translate(85.76,85.76) scale(0.33,0.33)">
        <g fill="none" fill-rule="nonzero" stroke="none" stroke-width="1" stroke-linecap="butt"
            stroke-linejoin="miter" stroke-miterlimit="10" stroke-dasharray="" stroke-dashoffset="0"
            font-family="none" font-weight="none" font-size="none" text-anchor="none"
            style="mix-blend-mode: normal">
            <g transform="translate(-209.6,-34.13333) scale(5.33333,5.33333)">
                <path
                    d="M36.683,43h-25.366c-2.136,0 -3.896,-1.679 -3.996,-3.813l-1.272,-27.14c-0.027,-0.57 0.428,-1.047 0.999,-1.047h33.904c0.571,0 1.026,0.477 0.999,1.047l-1.272,27.14c-0.1,2.134 -1.86,3.813 -3.996,3.813z"
                    fill="#f4511e"></path>
                <path
                    d="M32.5,11.5h-2c0,-4.136 -2.916,-7.5 -6.5,-7.5c-3.584,0 -6.5,3.364 -6.5,7.5h-2c0,-5.238 3.813,-9.5 8.5,-9.5c4.687,0 8.5,4.262 8.5,9.5z"
                    fill="#f4511e"></path>
                <path
                    d="M24.248,25.688c-2.741,-1.002 -4.405,-1.743 -4.405,-3.577c0,-1.851 1.776,-3.195 4.224,-3.195c1.685,0 3.159,0.66 3.888,1.052c0.124,0.067 0.474,0.277 0.672,0.41l0.13,0.087l0.958,-1.558l-0.157,-0.103c-0.772,-0.521 -2.854,-1.733 -5.49,-1.733c-3.459,0 -6.067,2.166 -6.067,5.039c0,3.257 2.983,4.347 5.615,5.309c3.07,1.122 4.934,1.975 4.934,4.349c0,1.828 -2.067,3.314 -4.609,3.314c-2.864,0 -5.326,-2.105 -5.349,-2.125l-0.128,-0.118l-1.046,1.542l0.106,0.087c0.712,0.577 3.276,2.458 6.416,2.458c3.619,0 6.454,-2.266 6.454,-5.158c-0.001,-3.835 -3.266,-5.027 -6.146,-6.08z"
                    fill="#fafafa"></path>
            </g>
        </g>
        <g fill="#ff6600" fill-rule="nonzero" stroke="none" stroke-width="1" stroke-linecap="butt"
            stroke-linejoin="miter" stroke-miterlimit="10" stroke-dasharray="" stroke-dashoffset="0"
            font-family="none" font-weight="none" font-size="none" text-anchor="none"
            style="mix-blend-mode: normal">
            <g>
                <path
                    d="M60.38667,122.81167v0c-11.58,-3.32667 -20.00667,-7.41667 -25.28,-12.27c-5.27333,-4.85333 -7.91,-10.84333 -7.91,-17.97v0c0,-8.06 3.22333,-14.72667 9.67,-20c6.44667,-5.27333 14.82333,-7.91 25.13,-7.91v0c7.03333,0 13.30333,1.36 18.81,4.08c5.50667,2.72 9.77333,6.47 12.8,11.25c3.02,4.78 4.53,10.00667 4.53,15.68v0h-13.57c0,-6.18667 -1.96667,-11.05 -5.9,-14.59c-3.94,-3.54 -9.49667,-5.31 -16.67,-5.31v0c-6.65333,0 -11.84333,1.46333 -15.57,4.39c-3.72667,2.93333 -5.59,7 -5.59,12.2v0c0,4.17333 1.77,7.7 5.31,10.58c3.54,2.88667 9.56333,5.52333 18.07,7.91c8.50667,2.39333 15.16333,5.03 19.97,7.91c4.8,2.88667 8.36333,6.25 10.69,10.09c2.32,3.84667 3.48,8.37 3.48,13.57v0c0,8.3 -3.23667,14.94667 -9.71,19.94c-6.46667,4.99333 -15.11333,7.49 -25.94,7.49v0c-7.03333,0 -13.59667,-1.35 -19.69,-4.05c-6.09333,-2.69333 -10.79333,-6.38333 -14.1,-11.07c-3.3,-4.68667 -4.95,-10.00667 -4.95,-15.96v0h13.57c0,6.18667 2.28333,11.07333 6.85,14.66c4.57333,3.58667 10.68,5.38 18.32,5.38v0c7.12,0 12.58,-1.45333 16.38,-4.36c3.8,-2.90667 5.7,-6.86667 5.7,-11.88c0,-5.02 -1.76,-8.9 -5.28,-11.64c-3.51333,-2.74 -9.88667,-5.44667 -19.12,-8.12zM126.61667,60.44167v41.13c5.76667,-7.07333 13.26667,-10.61 22.5,-10.61v0c16.08,0 24.19,9.07 24.33,27.21v0v50.27h-13.01v-50.34c-0.04667,-5.48667 -1.3,-9.54333 -3.76,-12.17c-2.46,-2.62667 -6.29333,-3.94 -11.5,-3.94v0c-4.21333,0 -7.91667,1.12667 -11.11,3.38c-3.18667,2.24667 -5.67,5.2 -7.45,8.86v0v54.21h-13.01v-108zM189.47667,130.61167v-0.91c0,-7.45333 1.46667,-14.15667 4.4,-20.11c2.92667,-5.95333 7.00333,-10.54667 12.23,-13.78c5.22667,-3.23333 11.19,-4.85 17.89,-4.85v0c10.36,0 18.74,3.58333 25.14,10.75c6.4,7.17333 9.6,16.71333 9.6,28.62v0v0.91c0,7.40667 -1.42,14.05333 -4.26,19.94c-2.83333,5.88 -6.88667,10.46 -12.16,13.74c-5.27333,3.28667 -11.33333,4.93 -18.18,4.93v0c-10.30667,0 -18.66,-3.58667 -25.06,-10.76c-6.4,-7.17333 -9.6,-16.66667 -9.6,-28.48zM202.55667,131.24167v0c0,8.44 1.95667,15.21667 5.87,20.33c3.91333,5.10667 9.15,7.66 15.71,7.66v0c6.61333,0 11.86333,-2.59 15.75,-7.77c3.89333,-5.18 5.84,-12.43333 5.84,-21.76v0c0,-8.34667 -1.98,-15.11 -5.94,-20.29c-3.96,-5.18 -9.22333,-7.77 -15.79,-7.77v0c-6.42,0 -11.59667,2.55667 -15.53,7.67c-3.94,5.10667 -5.91,12.41667 -5.91,21.93zM339.31667,130.05167v1.19c0,11.58 -2.65,20.91 -7.95,27.99c-5.29333,7.08 -12.46333,10.62 -21.51,10.62v0c-9.24,0 -16.50667,-2.93 -21.8,-8.79v0v36.63h-13.01v-105.33h11.88l0.64,8.44c5.29333,-6.56 12.65,-9.84 22.07,-9.84v0c9.14667,0 16.38,3.44333 21.7,10.33c5.32,6.89333 7.98,16.48 7.98,28.76zM326.30667,129.77167v0c0,-8.58 -1.83,-15.35333 -5.49,-20.32c-3.65333,-4.97333 -8.66667,-7.46 -15.04,-7.46v0c-7.87333,0 -13.78,3.49333 -17.72,10.48v0v36.35c3.88667,6.94 9.84,10.41 17.86,10.41v0c6.23333,0 11.19,-2.47333 14.87,-7.42c3.68,-4.94667 5.52,-12.29333 5.52,-22.04zM387.40667,169.85167v0c-10.31333,0 -18.70333,-3.38667 -25.17,-10.16c-6.46667,-6.77333 -9.7,-15.83333 -9.7,-27.18v0v-2.39c0,-7.54667 1.44,-14.28667 4.32,-20.22c2.88,-5.92667 6.91,-10.56667 12.09,-13.92c5.18,-3.34667 10.79333,-5.02 16.84,-5.02v0c9.89333,0 17.58333,3.25667 23.07,9.77c5.48,6.51333 8.22,15.84 8.22,27.98v0v5.42h-51.54c0.18667,7.5 2.38,13.55667 6.58,18.17c4.19333,4.62 9.52333,6.93 15.99,6.93v0c4.59333,0 8.48667,-0.93667 11.68,-2.81c3.18667,-1.88 5.97333,-4.36667 8.36,-7.46v0l7.95,6.19c-6.37333,9.8 -15.93667,14.7 -28.69,14.7zM385.78667,101.64167v0c-5.24667,0 -9.65333,1.91 -13.22,5.73c-3.56,3.82 -5.76,9.17667 -6.6,16.07v0h38.1v-0.98c-0.37333,-6.61333 -2.15333,-11.73667 -5.34,-15.37c-3.18667,-3.63333 -7.5,-5.45 -12.94,-5.45zM463.69667,169.85167v0c-10.31333,0 -18.70333,-3.38667 -25.17,-10.16c-6.47333,-6.77333 -9.71,-15.83333 -9.71,-27.18v0v-2.39c0,-7.54667 1.44333,-14.28667 4.33,-20.22c2.88,-5.92667 6.91,-10.56667 12.09,-13.92c5.18,-3.34667 10.79333,-5.02 16.84,-5.02v0c9.89333,0 17.58,3.25667 23.06,9.77c5.48667,6.51333 8.23,15.84 8.23,27.98v0v5.42h-51.54c0.18667,7.5 2.38,13.55667 6.58,18.17c4.19333,4.62 9.52333,6.93 15.99,6.93v0c4.59333,0 8.48333,-0.93667 11.67,-2.81c3.19333,-1.88 5.98333,-4.36667 8.37,-7.46v0l7.95,6.19c-6.38,9.8 -15.94333,14.7 -28.69,14.7zM462.07667,101.64167v0c-5.24667,0 -9.65333,1.91 -13.22,5.73c-3.56,3.82 -5.76333,9.17667 -6.61,16.07v0h38.11v-0.98c-0.37333,-6.61333 -2.15333,-11.73667 -5.34,-15.37c-3.18667,-3.63333 -7.5,-5.45 -12.94,-5.45z"></path>
            </g>
        </g>
    </g>
</svg>